<?xml version="1.0" encoding="UTF-8" standalone="no"?>
<svg width="114px" height="27px" viewBox="0 0 114 27" version="1.1" xmlns="http://www.w3.org/2000/svg" xmlns:xlink="http://www.w3.org/1999/xlink" xmlns:sketch="http://www.bohemiancoding.com/sketch/ns">
    <!-- Generator: Sketch 3.2.1 (9971) - http://www.bohemiancoding.com/sketch -->
    <title>Menu - Logo Chloé</title>
    <desc>Created with Sketch.</desc>
    <defs></defs>
    <g id="Page-1" stroke="none" stroke-width="1" fill="none" fill-rule="evenodd" sketch:type="MSPage">
        <g id="Homepage---Alertes" sketch:type="MSArtboardGroup" transform="translate(-661.000000, -27.000000)">
            <g id="Menu" sketch:type="MSLayerGroup" transform="translate(0.000000, -1.000000)">
                <g id="Menu---Logo-Chloé" transform="translate(662.000000, 29.000000)" sketch:type="MSShapeGroup">
                    <g id="LOGO">
                        <path d="M9.19886364,0.95270282 C9.19886364,0.95270282 17.7130682,8.66489834 17.7130682,15.7347972 C17.7130682,22.804696 13.4559659,24.7972972 9.19886364,24.7972972 C4.94176136,24.7972972 0.684659091,22.4006131 0.684659091,15.7347972 C0.684659091,9.06898126 9.19886364,0.95270282 9.19886364,0.95270282 Z" id="Polygon-2" stroke="#AEB6C1" stroke-width="2"></path>
                        <path d="M14.6134031,14.5601183 C14.2563409,14.2732333 14.2626809,15.9324955 12.5711489,17.4899863 C10.8796168,19.0474772 8.66770956,19.1989141 9.42461678,19.6846133 C10.181524,20.1703125 12.5291804,20.3867526 13.799877,19.0934039 C15.0705736,17.8000552 14.9704654,14.8470033 14.6134031,14.5601183 Z" id="Path-2" fill="#AEB6C1"></path>
                    </g>
                    <path d="M37.144375,18.15375 C38.7256329,18.15375 40.01812,17.5281313 41.021875,16.276875 L43.084375,18.40125 C41.4481168,20.2437592 39.5196986,21.165 37.2990625,21.165 C35.0784264,21.165 33.2496947,20.463757 31.8128125,19.06125 C30.3759303,17.658743 29.6575,15.8884482 29.6575,13.7503125 C29.6575,11.6121768 30.3896802,9.82813215 31.8540625,8.398125 C33.3184448,6.96811785 35.1093644,6.253125 37.226875,6.253125 C39.5918868,6.253125 41.571867,7.15374099 43.166875,8.955 L41.16625,11.22375 C40.1487449,9.95874367 38.8837576,9.32625 37.37125,9.32625 C36.161244,9.32625 35.1265668,9.72155855 34.2671875,10.5121875 C33.4078082,11.3028165 32.978125,12.3684308 32.978125,13.7090625 C32.978125,15.0496942 33.3837459,16.1256209 34.195,16.936875 C35.0062541,17.7481291 35.9893692,18.15375 37.144375,18.15375 L37.144375,18.15375 Z M57.5725,6.583125 L60.79,6.583125 L60.79,21 L57.5725,21 L57.5725,15.328125 L51.83875,15.328125 L51.83875,21 L48.62125,21 L48.62125,6.583125 L51.83875,6.583125 L51.83875,12.605625 L57.5725,12.605625 L57.5725,6.583125 Z M67.3375,21 L67.3375,6.583125 L70.555,6.583125 L70.555,18.133125 L76.70125,18.133125 L76.70125,21 L67.3375,21 Z M91.4575,10.419375 C90.6324959,9.51187046 89.6184435,9.058125 88.4153125,9.058125 C87.2121815,9.058125 86.1981291,9.51187046 85.373125,10.419375 C84.5481209,11.3268795 84.135625,12.4234311 84.135625,13.7090625 C84.135625,14.9946939 84.5481209,16.087808 85.373125,16.9884375 C86.1981291,17.889067 87.2121815,18.339375 88.4153125,18.339375 C89.6184435,18.339375 90.6324959,17.889067 91.4575,16.9884375 C92.2825041,16.087808 92.695,14.9946939 92.695,13.7090625 C92.695,12.4234311 92.2825041,11.3268795 91.4575,10.419375 L91.4575,10.419375 Z M88.405,21.144375 C86.2737393,21.144375 84.4793823,20.4328196 83.021875,19.0096875 C81.5643677,17.5865554 80.835625,15.8162606 80.835625,13.69875 C80.835625,11.5812394 81.5643677,9.81094462 83.021875,8.3878125 C84.4793823,6.96468038 86.2737393,6.253125 88.405,6.253125 C90.5362607,6.253125 92.3306177,6.96468038 93.788125,8.3878125 C95.2456323,9.81094462 95.974375,11.5812394 95.974375,13.69875 C95.974375,15.8162606 95.2456323,17.5865554 93.788125,19.0096875 C92.3306177,20.4328196 90.5362607,21.144375 88.405,21.144375 L88.405,21.144375 Z M112.091875,6.583125 L112.091875,9.45 L104.914375,9.45 L104.914375,12.42 L111.37,12.42 L111.37,15.163125 L104.914375,15.163125 L104.914375,18.15375 L112.31875,18.15375 L112.31875,21 L101.696875,21 L101.696875,6.583125 L112.091875,6.583125 Z M108.07,5.098125 L105.120625,5.098125 L107.74,1.4475 L110.936875,2.788125 L108.07,5.098125 Z" id="CHLOÉ" fill="#AEB6C1"></path>
                </g>
            </g>
        </g>
    </g>
</svg>