<?xml version="1.0" encoding="utf-8"?>
<!-- Generator: Adobe Illustrator 17.0.0, SVG Export Plug-In . SVG Version: 6.00 Build 0)  -->
<!DOCTYPE svg PUBLIC "-//W3C//DTD SVG 1.1//EN" "http://www.w3.org/Graphics/SVG/1.1/DTD/svg11.dtd">
<svg version="1.1" id="Capa_1" xmlns="http://www.w3.org/2000/svg" xmlns:xlink="http://www.w3.org/1999/xlink" x="0px" y="0px"
	 width="16px" height="16px" viewBox="0 0 16 16" enable-background="new 0 0 16 16" xml:space="preserve">
<g>
	<g>
		<path fill="#AEB6C1" d="M0,6.477c0,3.577,2.9,6.477,6.477,6.477c1.54,0,2.953-0.54,4.065-1.436l4.281,4.28
			c0.269,0.27,0.706,0.27,0.975,0c0.269-0.269,0.269-0.705,0-0.975l-4.281-4.28c0.897-1.114,1.437-2.526,1.437-4.065
			C12.954,2.9,10.055,0,6.478,0C2.902,0,0,2.9,0,6.477z M0.997,6.477c0-3.022,2.459-5.48,5.48-5.48s5.48,2.458,5.48,5.48
			s-2.457,5.48-5.48,5.48C3.456,11.957,0.997,9.499,0.997,6.477z"/>
	</g>
</g>
</svg>
