<svg  version="1.1" xmlns="http://www.w3.org/2000/svg" xmlns:xlink="http://www.w3.org/1999/xlink" >
    <path id="alert" transform="translate(-890.000000, -25.000000)" fill="#AEB6C1" d="M906.953125,30 L907,30.046875 L906.71875,30.328125 C905.156242,31.8906328 903.937504,32.968747 903.0625,33.5625 C901.374992,34.6875056 899.687508,35.25 898,35.25 C896.781244,35.25 895.617193,34.9843777 894.507812,34.453125 C893.398432,33.9218723 892.546878,33.3906277 891.953125,32.859375 C891.359372,32.3281223 890.484381,31.4843808 889.328125,30.328125 L889,30 L889.046875,29.953125 C890.765634,28.2031163 892.234369,26.9375039 893.453125,26.15625 C894.953133,25.2187453 896.468742,24.75 898,24.75 C900.937515,24.75 903.92186,26.4999825 906.953125,30 L906.953125,30 Z M898,33.75 C899.031255,33.75 899.914059,33.3828162 900.648438,32.6484375 C901.382816,31.9140588 901.75,31.0312552 901.75,30 C901.75,28.9687448 901.382816,28.0859412 900.648438,27.3515625 C899.914059,26.6171838 899.031255,26.25 898,26.25 C896.968745,26.25 896.085941,26.6171838 895.351562,27.3515625 C894.617184,28.0859412 894.25,28.9687448 894.25,30 C894.25,31.0312552 894.617184,31.9140588 895.351562,32.6484375 C896.085941,33.3828162 896.968745,33.75 898,33.75 L898,33.75 Z M897.71875,28.640625 C897.71875,29.0781272 897.882811,29.4609359 898.210938,29.7890625 C898.539064,30.1171891 898.921873,30.28125 899.359375,30.28125 C899.703127,30.28125 899.999999,30.1875009 900.25,30 C900.25,30.6250031 900.031252,31.1562478 899.59375,31.59375 C899.156248,32.0312522 898.625003,32.25 898,32.25 C897.374997,32.25 896.843752,32.0312522 896.40625,31.59375 C895.968748,31.1562478 895.75,30.6250031 895.75,30 C895.75,29.3749969 895.968748,28.8437522 896.40625,28.40625 C896.843752,27.9687478 897.374997,27.75 898,27.75 C897.812499,28.0000013 897.71875,28.2968733 897.71875,28.640625 L897.71875,28.640625 Z">
    </path>

	<path id="search" transform="translate(-10.000000, -10.000000)" sketch:type="MSShapeGroup" fill="#AEB6C1" d="M40,38.433l-8.657-8.657c0.448-0.498,0.846-1.045,1.194-1.642
		c0.348-0.597,0.647-1.219,0.896-1.866c0.249-0.647,0.435-1.331,0.56-2.052c0.124-0.721,0.187-1.43,0.187-2.127
		c0-1.692-0.323-3.271-0.97-4.739c-0.647-1.468-1.517-2.749-2.612-3.843s-2.376-1.953-3.843-2.575
		C25.286,10.311,23.731,10,22.09,10c-1.692,0-3.271,0.311-4.739,0.933c-1.468,0.622-2.749,1.48-3.843,2.575
		s-1.953,2.376-2.575,3.843C10.311,18.818,10,20.398,10,22.09c0,1.642,0.311,3.197,0.933,4.664
		c0.622,1.468,1.48,2.749,2.575,3.843s2.376,1.965,3.843,2.612c1.468,0.647,3.047,0.97,4.739,0.97
		c0.697,0,1.405-0.062,2.127-0.187c0.721-0.124,1.405-0.311,2.052-0.56c0.647-0.249,1.269-0.547,1.866-0.896
		c0.597-0.348,1.144-0.746,1.642-1.194L38.433,40L40,38.433z M11.269,22.09c0-1.493,0.274-2.898,0.821-4.216
		c0.547-1.318,1.318-2.475,2.313-3.47s2.152-1.766,3.47-2.313c1.318-0.547,2.724-0.821,4.216-0.821s2.886,0.274,4.179,0.821
		c1.294,0.547,2.438,1.318,3.433,2.313s1.779,2.152,2.351,3.47c0.572,1.318,0.858,2.724,0.858,4.216s-0.286,2.886-0.858,4.179
		c-0.572,1.294-1.356,2.438-2.351,3.433s-2.139,1.779-3.433,2.351c-1.294,0.572-2.687,0.858-4.179,0.858
		s-2.898-0.286-4.216-0.858c-1.318-0.572-2.475-1.356-3.47-2.351s-1.766-2.139-2.313-3.433
		C11.542,24.975,11.269,23.582,11.269,22.09L11.269,22.09z">
	</path>
</svg> 