<svg width="20" height="20" fill="none" xmlns="http://www.w3.org/2000/svg">
    <path d="M7.5 8a.75.75 0 0 0-.75.75v1.5a.75.75 0 0 0 1.5 0V9.5h1V13h-.5a.75.75 0 0 0 0 1.5h2.5a.75.75 0 0 0 0-1.5h-.5V9.5h1v.75a.75.75 0 0 0 1.5 0v-1.5A.75.75 0 0 0 12.5 8h-5Z" fill="#788BA5"/>
    <path fill-rule="evenodd" clip-rule="evenodd" d="M3 4v12a2 2 0 0 0 2 2h10a2 2 0 0 0 2-2V6.914a1 1 0 0 0-.293-.707l-3.914-3.914A1 1 0 0 0 12.086 2H5a2 2 0 0 0-2 2Zm1.5 0v12a.5.5 0 0 0 .5.5h10a.5.5 0 0 0 .5-.5V7.25h-1.75a2 2 0 0 1-2-2V3.5H5a.5.5 0 0 0-.5.5Z" fill="#788BA5"/>
</svg>
