<svg width="20" height="20" fill="none" xmlns="http://www.w3.org/2000/svg">
    <path fill-rule="evenodd" clip-rule="evenodd" d="M2 5.75A2.75 2.75 0 0 1 4.75 3h2.836c.464 0 .909.184 1.237.513l1.414 1.414a.25.25 0 0 0 .177.073h4.836A2.75 2.75 0 0 1 18 7.75v6.5A2.75 2.75 0 0 1 15.25 17H4.75A2.75 2.75 0 0 1 2 14.25v-8.5ZM4.75 4.5c-.69 0-1.25.56-1.25 1.25v8.5c0 .69.56 1.25 1.25 1.25h10.5c.69 0 1.25-.56 1.25-1.25v-6.5c0-.69-.56-1.25-1.25-1.25h-4.836a1.75 1.75 0 0 1-1.237-.513L7.763 4.573a.25.25 0 0 0-.177-.073H4.75Z" fill="#788BA5"/>
</svg>
