<svg width="20" height="20" fill="none" xmlns="http://www.w3.org/2000/svg">
    <path d="M14 18a.75.75 0 0 1-.75-.75v-2.5h-6.5v2.5a.75.75 0 0 1-1.5 0v-2.5H2.857C2.384 14.75 2 14.414 2 14s.384-.75.857-.75H5.25v-6.5H2.857C2.384 6.75 2 6.414 2 6s.384-.75.857-.75H5.25v-2.5a.75.75 0 0 1 1.5 0v2.5h6.5v-2.5a.75.75 0 0 1 1.5 0v2.5h2.393c.473 0 .857.336.857.75s-.384.75-.857.75H14.75v6.5h2.393c.473 0 .857.336.857.75s-.384.75-.857.75H14.75v2.5A.75.75 0 0 1 14 18ZM6.75 6.75v6.5h6.5v-6.5h-6.5Z" fill="#788BA5"/>
</svg>
