<svg width="20" height="20" fill="none" xmlns="http://www.w3.org/2000/svg">
    <path fill-rule="evenodd" clip-rule="evenodd" d="M10 18a8 8 0 1 0 0-16 8 8 0 0 0 0 16Zm6.5-8a6.472 6.472 0 0 1-1.404 4.035l-1.727-1.727c.45-.656.714-1.451.714-2.308 0-.857-.263-1.652-.714-2.308l1.727-1.727A6.473 6.473 0 0 1 16.5 10Zm-2.465-5.096A6.472 6.472 0 0 0 10 3.5a6.472 6.472 0 0 0-4.035 1.404l1.727 1.727A4.064 4.064 0 0 1 10 5.917c.857 0 1.652.263 2.308.714l1.727-1.727ZM5.917 10c0-.857.263-1.652.714-2.308L4.904 5.965A6.472 6.472 0 0 0 3.5 10c0 1.525.525 2.927 1.404 4.035l1.727-1.727A4.065 4.065 0 0 1 5.917 10Zm.048 5.096A6.473 6.473 0 0 0 10 16.5a6.472 6.472 0 0 0 4.035-1.404l-1.727-1.727a4.065 4.065 0 0 1-2.308.714 4.064 4.064 0 0 1-2.308-.714l-1.727 1.727ZM7.417 10a2.583 2.583 0 1 1 5.166 0 2.583 2.583 0 0 1-5.166 0Z" fill="#788BA5"/>
</svg>
