<svg width="20" height="20" fill="none" xmlns="http://www.w3.org/2000/svg">
    <path fill-rule="evenodd" clip-rule="evenodd" d="m4 8.887-.75.671a.75.75 0 0 1-1-1.116L8.831 2.54a1.75 1.75 0 0 1 2.336 0l6.583 5.902a.75.75 0 0 1-1.002 1.116L16 8.887v6.863A2.25 2.25 0 0 1 13.75 18h-7.5A2.248 2.248 0 0 1 4 15.752V8.887Zm5.833-5.23a.25.25 0 0 1 .334 0L14.5 7.542v8.208a.75.75 0 0 1-.75.75h-1.5v-4a2 2 0 0 0-2-2h-.5a2 2 0 0 0-2 2v4h-1.5a.748.748 0 0 1-.75-.748v-8.21l4.333-3.885Z" fill="#788BA5"/>
</svg>
