<svg width="20" height="20" fill="none" xmlns="http://www.w3.org/2000/svg">
    <path d="M8.5 6.75a.75.75 0 0 0-1.5 0v3a.75.75 0 0 0 1.5 0v-3ZM12.25 6a.75.75 0 0 1 .75.75v3a.75.75 0 0 1-1.5 0v-3a.75.75 0 0 1 .75-.75ZM8.5 12a1 1 0 0 0-1 1v1h5v-1a1 1 0 0 0-1-1h-3Z" fill="#788BA5"/>
    <path fill-rule="evenodd" clip-rule="evenodd" d="M2 8a6 6 0 0 1 6-6h4a6 6 0 0 1 6 6v4a6 6 0 0 1-6 6H8a6 6 0 0 1-6-6V8Zm6-4.5h4A4.5 4.5 0 0 1 16.5 8v4a4.5 4.5 0 0 1-4.5 4.5H8A4.5 4.5 0 0 1 3.5 12V8A4.5 4.5 0 0 1 8 3.5Z" fill="#788BA5"/>
</svg>
