<svg width="20" height="20" fill="none" xmlns="http://www.w3.org/2000/svg">
    <path d="M7.452 6.955a1.56 1.56 0 0 0 0 2.197l2.184 2.196a.512.512 0 0 0 .728 0l2.184-2.196a1.56 1.56 0 0 0 0-2.197 1.538 1.538 0 0 0-2.184 0L10 7.32l-.364-.366a1.538 1.538 0 0 0-2.184 0Z" fill="#788BA5"/>
    <path fill-rule="evenodd" clip-rule="evenodd" d="M4.75 3A2.75 2.75 0 0 0 2 5.75v10.5c0 .966.784 1.75 1.75 1.75h.032c.519 0 1.012-.23 1.344-.63L7.101 15h8.149A2.75 2.75 0 0 0 18 12.25v-6.5A2.75 2.75 0 0 0 15.25 3H4.75ZM3.5 5.75c0-.69.56-1.25 1.25-1.25h10.5c.69 0 1.25.56 1.25 1.25v6.5c0 .69-.56 1.25-1.25 1.25H6.867a1 1 0 0 0-.768.36l-2.125 2.55a.25.25 0 0 1-.192.09H3.75a.25.25 0 0 1-.25-.25V5.75Z" fill="#788BA5"/>
</svg>
