<svg width="20" height="20" fill="none" xmlns="http://www.w3.org/2000/svg">
    <path fill-rule="evenodd" clip-rule="evenodd" d="m17.848 11.561-1.472-.29a6.534 6.534 0 0 0 0-2.541l1.472-.291a8.039 8.039 0 0 1 0 3.122Zm-1.195-6.006-1.247.835a6.544 6.544 0 0 0-1.796-1.796l.835-1.247a8.043 8.043 0 0 1 2.207 2.208ZM11.56 2.152l-.29 1.472a6.54 6.54 0 0 0-2.541 0l-.291-1.472a8.04 8.04 0 0 1 3.122 0ZM5.555 3.347l.835 1.247A6.544 6.544 0 0 0 4.594 6.39l-1.247-.835a8.044 8.044 0 0 1 2.208-2.208ZM2.152 8.44a8.04 8.04 0 0 0 0 3.122l1.472-.29a6.54 6.54 0 0 1 0-2.541l-1.472-.291Zm1.195 6.006 1.247-.835a6.544 6.544 0 0 0 1.796 1.796l-.835 1.246a8.043 8.043 0 0 1-2.208-2.207Zm5.092 3.403.29-1.472a6.534 6.534 0 0 0 2.541 0l.291 1.472a8.039 8.039 0 0 1-3.122 0Zm6.006-1.195-.835-1.247a6.544 6.544 0 0 0 1.796-1.796l1.246.835a8.042 8.042 0 0 1-2.207 2.207Z" fill="#788BA5"/>
</svg>
