<svg width="20" height="20" fill="none" xmlns="http://www.w3.org/2000/svg">
    <path fill-rule="evenodd" clip-rule="evenodd" d="M8.019 3.723A5.002 5.002 0 0 0 4.5 8.5v1.672a2 2 0 0 1-.586 1.414l-.328.328A2 2 0 0 0 3 13.328v.172a2 2 0 0 0 2 2h2.041a3 3 0 0 0 5.918 0H15a2 2 0 0 0 2-2v-.172a2 2 0 0 0-.586-1.414l-.328-.328a2 2 0 0 1-.586-1.414V8.5a5.002 5.002 0 0 0-3.519-4.777A1.996 1.996 0 0 0 10 2a1.996 1.996 0 0 0-1.981 1.723ZM14 8.5A3.5 3.5 0 0 0 10.5 5h-1A3.5 3.5 0 0 0 6 8.5v1.672a3.5 3.5 0 0 1-1.025 2.474l-.329.329a.5.5 0 0 0-.146.353v.172a.5.5 0 0 0 .5.5h10a.5.5 0 0 0 .5-.5v-.172a.5.5 0 0 0-.146-.353l-.329-.329A3.5 3.5 0 0 1 14 10.172V8.5Zm-4 8a1.5 1.5 0 0 1-1.415-1h2.83a1.5 1.5 0 0 1-1.415 1Z" fill="#788BA5"/>
</svg>
