<svg width="20" height="20" fill="none" xmlns="http://www.w3.org/2000/svg">
    <path fill-rule="evenodd" clip-rule="evenodd" d="M12.156 11.086a3 3 0 1 0-4.311 0 4.268 4.268 0 0 0-1.706 1.886.75.75 0 0 0 1.362.628 2.75 2.75 0 0 1 4.998 0 .75.75 0 1 0 1.362-.628 4.268 4.268 0 0 0-1.705-1.886ZM10 10.5a1.5 1.5 0 1 0 0-3 1.5 1.5 0 0 0 0 3Z" fill="#788BA5"/>
    <path fill-rule="evenodd" clip-rule="evenodd" d="M4 2a2 2 0 0 0-2 2v12a2 2 0 0 0 2 2h12a2 2 0 0 0 2-2V4a2 2 0 0 0-2-2H4Zm12 1.5H4a.5.5 0 0 0-.5.5v12a.5.5 0 0 0 .5.5h12a.5.5 0 0 0 .5-.5V4a.5.5 0 0 0-.5-.5Z" fill="#788BA5"/>
</svg>
