<svg width="20" height="20" fill="none" xmlns="http://www.w3.org/2000/svg">
    <path fill-rule="evenodd" clip-rule="evenodd" d="m13.116 12.33-.799.48a1 1 0 0 0-.434.54l-.725 2.176a1 1 0 0 1-.632.632l-2.427.809a.646.646 0 0 1-.816-.816L8 14.003a2 2 0 0 0-2-2l-2.148.716a.647.647 0 0 1-.819-.819l.809-2.426a1 1 0 0 1 .632-.632l2.175-.725a1 1 0 0 0 .541-.434l.48-.799A8 8 0 0 1 14.53 3H16a1 1 0 0 1 1 1v1.47a8 8 0 0 1-3.884 6.86ZM3 17l2.607-.869a1 1 0 0 0 .578-.502l.499-.996a.981.981 0 0 0-1.316-1.317l-.998.499a1 1 0 0 0-.501.578L3 17Zm9.5-8a1.5 1.5 0 1 0 0-3 1.5 1.5 0 0 0 0 3Z" fill="#788BA5"/>
</svg>
