<svg width="20" height="20" fill="none" xmlns="http://www.w3.org/2000/svg">
    <path d="M3.016 4.305C2.57 4.76 2.25 5.332 2.25 6v8c0 .668.319 1.241.766 1.695.444.45 1.05.82 1.739 1.116 1.38.591 3.235.939 5.245.939 2.01 0 3.865-.348 5.245-.94.69-.295 1.295-.665 1.739-1.115.447-.454.766-1.027.766-1.695V6c0-.668-.319-1.241-.766-1.695-.444-.45-1.05-.82-1.739-1.116-1.38-.591-3.235-.939-5.245-.939-2.01 0-3.865.348-5.245.94-.69.295-1.295.665-1.739 1.115ZM4.084 5.36c.264-.268.684-.543 1.262-.791C6.499 4.074 8.144 3.75 10 3.75c1.856 0 3.501.324 4.654.818.578.248.998.523 1.262.791.261.265.334.48.334.641 0 .16-.073.376-.334.64-.264.269-.684.544-1.262.792-1.153.494-2.798.818-4.654.818-1.856 0-3.501-.324-4.654-.818-.578-.248-.998-.523-1.262-.791-.261-.265-.334-.48-.334-.641 0-.16.073-.376.334-.64ZM16.25 10c0 .16-.073.376-.334.64-.264.269-.684.544-1.262.792-1.153.494-2.798.818-4.654.818-1.856 0-3.501-.324-4.654-.818-.578-.248-.998-.523-1.262-.791-.261-.265-.334-.48-.334-.641V8.283c.304.197.643.373 1.005.528 1.38.591 3.235.939 5.245.939 2.01 0 3.865-.348 5.245-.94.362-.154.7-.33 1.005-.527V10Zm-12.5 2.283a6.72 6.72 0 0 0 1.005.528c1.38.591 3.235.939 5.245.939 2.01 0 3.865-.348 5.245-.94.362-.154.7-.33 1.005-.527V14c0 .16-.073.376-.334.64-.264.269-.684.544-1.262.792-1.153.494-2.798.818-4.654.818-1.856 0-3.501-.324-4.654-.818-.578-.248-.998-.523-1.262-.791-.261-.265-.334-.48-.334-.641v-1.717Z" fill="#788BA5"/>
</svg>
