<svg width="20" height="20" fill="none" xmlns="http://www.w3.org/2000/svg">
    <path fill-rule="evenodd" clip-rule="evenodd" d="M10 6.75a3.25 3.25 0 1 0 0 6.5 3.25 3.25 0 0 0 0-6.5ZM8.25 10a1.75 1.75 0 1 1 3.5 0 1.75 1.75 0 0 1-3.5 0Z" fill="#788BA5"/>
    <path fill-rule="evenodd" clip-rule="evenodd" d="M12.085 3.6c-.596-2.1-3.574-2.1-4.17 0a.667.667 0 0 1-.966.4C5.042 2.936 2.936 5.042 4 6.95c.21.376.014.849-.4.966-2.1.596-2.1 3.574 0 4.17.414.117.61.59.4.966C2.936 14.958 5.042 17.064 6.95 16a.667.667 0 0 1 .966.4c.596 2.102 3.574 2.102 4.17 0a.667.667 0 0 1 .966-.4c1.907 1.065 4.012-1.04 2.948-2.948a.667.667 0 0 1 .4-.966c2.101-.596 2.101-3.574 0-4.17a.667.667 0 0 1-.4-.966C17.063 5.042 14.958 2.936 13.051 4a.667.667 0 0 1-.966-.4Zm-2.727.41c.184-.647 1.1-.647 1.284 0a2.167 2.167 0 0 0 3.14 1.3c.587-.327 1.235.32.908.908a2.167 2.167 0 0 0 1.3 3.14c.647.184.647 1.1 0 1.284a2.167 2.167 0 0 0-1.3 3.14c.327.587-.321 1.235-.908.908a2.167 2.167 0 0 0-3.14 1.3c-.184.647-1.1.647-1.284 0a2.167 2.167 0 0 0-3.14-1.3c-.587.327-1.235-.32-.908-.908a2.167 2.167 0 0 0-1.3-3.14c-.647-.184-.647-1.1 0-1.284a2.167 2.167 0 0 0 1.3-3.14c-.327-.587.32-1.235.908-.908a2.167 2.167 0 0 0 3.14-1.3Z" fill="#788BA5"/>
</svg>
