<svg width="20" height="20" fill="none" xmlns="http://www.w3.org/2000/svg">
    <path d="M10.75 4.75a.75.75 0 0 0-1.5 0v.5a.75.75 0 0 0 1.5 0v-.5ZM6.818 5.757a.75.75 0 0 0-1.06 1.061l.353.354A.75.75 0 1 0 7.17 6.11l-.353-.354ZM14.243 6.818a.75.75 0 0 0-1.061-1.06l-.354.353a.75.75 0 1 0 1.061 1.06l.354-.353ZM4.75 9.25a.75.75 0 0 0 0 1.5h.5a.75.75 0 0 0 0-1.5h-.5ZM14.75 9.25a.75.75 0 0 0 0 1.5h.5a.75.75 0 0 0 0-1.5h-.5ZM7.172 13.89a.75.75 0 0 0-1.061-1.062l-.354.354a.75.75 0 1 0 1.061 1.06l.354-.353ZM13.89 12.828a.75.75 0 0 0-1.062 1.061l.354.354a.75.75 0 1 0 1.06-1.061l-.353-.354ZM10.75 14.75a.75.75 0 0 0-1.5 0v.5a.75.75 0 0 0 1.5 0v-.5ZM10 13a3 3 0 1 0 0-6 3 3 0 0 0 0 6Z" fill="#788BA5"/>
</svg>
