<svg width="102" height="102" fill="none" xmlns="http://www.w3.org/2000/svg">
    <g clip-path="url(#a)" stroke="#128BE2" stroke-width="1.5" stroke-linecap="round" stroke-linejoin="round">
        <path clip-rule="evenodd" d="M26.75 20.75a2.25 2.25 0 0 0-2.2 1.767 1.457 1.457 0 0 0-.8-.267 1.5 1.5 0 0 0 0 3h3a2.25 2.25 0 0 0 0-4.5v0Z"/>
        <path d="M32.75 43.25c0-4.971-2.686-9-6-9s-6 4.029-6 9M43.25 43.25c0-9.941-3.862-18-8.625-18-2.559 0-4.858 2.326-6.437 6.02"/>
        <path d="M29.822 28.298 32 29.75l2.25-1.5 2.25 1.5 2.681-1.787"/>
    </g>
    <g clip-path="url(#b)" stroke="#128BE2" stroke-width="1.5" stroke-linecap="round" stroke-linejoin="round">
        <path clip-rule="evenodd" d="M73.063 20.563a1.687 1.687 0 0 0-1.65 1.325 1.092 1.092 0 0 0-.6-.2 1.125 1.125 0 0 0 0 2.25h2.25a1.687 1.687 0 1 0 0-3.375v0Z"/>
        <path d="M77.563 37.438c0-3.729-2.015-6.75-4.5-6.75-2.486 0-4.5 3.021-4.5 6.75M85.438 37.438c0-7.456-2.897-13.5-6.47-13.5-1.919 0-3.643 1.744-4.827 4.515"/>
        <path d="M75.367 26.224 77 27.312l1.688-1.125 1.687 1.125 2.01-1.34"/>
    </g>
    <g clip-path="url(#c)" stroke="#7BC2F5" stroke-width="1.5" stroke-linecap="round" stroke-linejoin="round">
        <path clip-rule="evenodd" d="M26.75 64.75a2.25 2.25 0 0 0-2.2 1.767 1.457 1.457 0 0 0-.8-.267 1.5 1.5 0 0 0 0 3h3a2.25 2.25 0 0 0 0-4.5v0Z"/>
        <path d="M32.75 87.25c0-4.971-2.686-9-6-9s-6 4.029-6 9M43.25 87.25c0-9.941-3.862-18-8.625-18-2.559 0-4.858 2.326-6.437 6.02"/>
        <path d="M29.822 72.298 32 73.75l2.25-1.5 2.25 1.5 2.681-1.787"/>
    </g>
    <g clip-path="url(#d)" stroke="#7BC2F5" stroke-width="1.5" stroke-linecap="round" stroke-linejoin="round">
        <path clip-rule="evenodd" d="M73.063 64.563a1.687 1.687 0 0 0-1.65 1.325 1.092 1.092 0 0 0-.6-.2 1.125 1.125 0 0 0 0 2.25h2.25a1.687 1.687 0 1 0 0-3.376v0Z"/>
        <path d="M77.563 81.438c0-3.729-2.015-6.75-4.5-6.75-2.486 0-4.5 3.021-4.5 6.75M85.438 81.438c0-7.456-2.897-13.5-6.47-13.5-1.919 0-3.643 1.744-4.827 4.514"/>
        <path d="M75.367 70.224 77 71.311l1.688-1.124 1.687 1.124 2.01-1.34"/>
    </g>
    <rect x=".5" y=".5" width="101" height="101" rx="4.5" stroke="#7B61FF" stroke-dasharray="10 5"/>
    <defs>
        <clipPath id="a">
            <path fill="#fff" transform="translate(20 20)" d="M0 0h24v24H0z"/>
        </clipPath>
        <clipPath id="b">
            <path fill="#fff" transform="translate(68 20)" d="M0 0h18v18H0z"/>
        </clipPath>
        <clipPath id="c">
            <path fill="#fff" transform="translate(20 64)" d="M0 0h24v24H0z"/>
        </clipPath>
        <clipPath id="d">
            <path fill="#fff" transform="translate(68 64)" d="M0 0h18v18H0z"/>
        </clipPath>
    </defs>
</svg>
